<svg xmlns="http://www.w3.org/2000/svg" width="32" height="32" viewBox="0 0 32 32">
  <rect width="32" height="32" rx="4" fill="#ff6b9d"/>
  <path d="M16,26c-0.2,0-0.4-0.1-0.6-0.2c-3.1-2.8-5.6-5.3-7.4-7.5c-1.9-2.4-2.8-4.5-2.8-6.5c0-2,0.6-3.8,1.9-5.1 c1.3-1.3,3-2,4.9-2c1.2,0,2.4,0.3,3.4,0.9c0.5,0.3,1,0.7,1.4,1.1c0.1,0.1,0.2,0.2,0.3,0.3c0.1-0.1,0.2-0.2,0.3-0.3 c0.4-0.4,0.9-0.8,1.4-1.1c1-0.6,2.2-0.9,3.4-0.9c1.9,0,3.6,0.7,4.9,2c1.3,1.3,1.9,3.1,1.9,5.1c0,2-0.9,4.1-2.8,6.5 c-1.8,2.2-4.3,4.7-7.4,7.5C16.4,25.9,16.2,26,16,26z" fill="white"/>
  <path d="M22,12 L10,24" stroke="#ff4d79" stroke-width="2" stroke-linecap="round"/>
  <path d="M10,12 L22,24" stroke="#ff4d79" stroke-width="2" stroke-linecap="round"/>
</svg> 